HIERARCHY
ROOT Hips
{
	OFFSET 0.00000 0.00000 0.00000
	CHANNELS 6 Xposition Yposition Zposition Zrotation Yrotation Xrotation 
	JOINT LHipJoint
	{
		OFFSET 0 0 0
		CHANNELS 3 Zrotation Yrotation Xrotation
		JOINT LeftHip
		{
			OFFSET 1.84395 -1.68683 0.74144
			CHANNELS 3 Zrotation Yrotation Xrotation
			JOINT LeftKnee
			{
				OFFSET 2.27037 -6.23779 0.00000
				CHANNELS 3 Zrotation Yrotation Xrotation
				JOINT LeftAnkle
				{
					OFFSET 2.56918 -7.05877 0.00000
					CHANNELS 3 Zrotation Yrotation Xrotation
					JOINT LeftToe
					{
						OFFSET 0.22276 -0.61202 1.71784
						CHANNELS 3 Zrotation Yrotation Xrotation
						End Site
						{
							OFFSET 0.00000 -0.00000 0.91613
						}
					}
				}
			}
		}
	}
	JOINT RHipJoint
	{
		OFFSET 0 0 0
		CHANNELS 3 Zrotation Yrotation Xrotation
		JOINT RightHip
		{
			OFFSET -1.76833 -1.68684 0.74144
			CHANNELS 3 Zrotation Yrotation Xrotation
			JOINT RightKnee
			{
				OFFSET -2.49360 -6.85110 0.00000
				CHANNELS 3 Zrotation Yrotation Xrotation
				JOINT RightAnkle
				{
					OFFSET -2.55538 -7.02085 0.00000
					CHANNELS 3 Zrotation Yrotation Xrotation
					JOINT RightToe
					{
						OFFSET -0.21516 -0.59115 1.68050
						CHANNELS 3 Zrotation Yrotation Xrotation
						End Site
						{
							OFFSET -0.00000 -0.00000 0.89604
						}
					}
				}
			}
		}
	}
	JOINT lowerback
	{
		OFFSET 0 0 0
		CHANNELS 3 Zrotation Yrotation Xrotation
		JOINT Chest
		{
			OFFSET 0.06382 1.72312 -0.19613
			CHANNELS 3 Zrotation Yrotation Xrotation
			JOINT Chest2
			{
				OFFSET -0.00055 1.73507 0.23859
				CHANNELS 3 Zrotation Yrotation Xrotation
				JOINT lowerneck
				{
					OFFSET 0 0 0
					CHANNELS 3 Zrotation Yrotation Xrotation
					JOINT Neck
					{
						OFFSET 0.03638 1.65562 0.09633
						CHANNELS 3 Zrotation Yrotation Xrotation
						JOINT Head
						{
							OFFSET 0.06388 1.62807 -0.32386
							CHANNELS 3 Zrotation Yrotation Xrotation
							End Site
							{
								OFFSET 0.00995 1.67644 -0.12021
							}
						}
					}
				}
				JOINT LeftCollar
				{
					OFFSET 0 0 0
					CHANNELS 3 Zrotation Yrotation Xrotation
					JOINT LeftShoulder
					{
						OFFSET 3.09648 1.42991 0.28122
CHANNELS 3 Zrotation Xrotation Yrotation
						JOINT LeftElbow
						{
OFFSET 0 -5.118780 -0.000000
CHANNELS 3 Zrotation Xrotation Yrotation
							JOINT LeftWrist
							{
OFFSET 0 -3.599710 0.000000
CHANNELS 3 Zrotation Xrotation Yrotation
								JOINT lhand
								{
									OFFSET 0 0 0
CHANNELS 3 Zrotation Xrotation Yrotation
									JOINT LFingers
									{
OFFSET 0 -0.628770 0.000000
CHANNELS 3 Zrotation Xrotation Yrotation
										End Site
										{
OFFSET 0 -0.506930 0.000000
										}
									}
								}
								JOINT LThumb
								{
OFFSET 0 0.000000 0.000000
CHANNELS 3 Zrotation Xrotation Yrotation
									End Site
									{
OFFSET 0 -0.514670 0.514670
									}
								}
							}
						}
					}
				}
				JOINT RightCollar
				{
					OFFSET 0 0 0
					CHANNELS 3 Zrotation Yrotation Xrotation
					JOINT RightShoulder
					{
						OFFSET -3.33565 1.14597 0.05047
CHANNELS 3 Zrotation Xrotation Yrotation
						JOINT RightElbow
						{
OFFSET 0 -5.490200 0.000000
CHANNELS 3 Zrotation Xrotation Yrotation
							JOINT RightWrist
							{
OFFSET 0 -3.206590 -0.000000
CHANNELS 3 Zrotation Xrotation Yrotation
								JOINT rhand
								{
									OFFSET 0 0 0
CHANNELS 3 Zrotation Xrotation Yrotation
									JOINT RFingers
									{
OFFSET 0 -0.691880 0.000000
CHANNELS 3 Zrotation Xrotation Yrotation
										End Site
										{
OFFSET 0 -0.557810 0.000000
										}
									}
								}
								JOINT RThumb
								{
OFFSET 0 0.000000 0.000000
CHANNELS 3 Zrotation Xrotation Yrotation
									End Site
									{
OFFSET 0 -0.566330 0.566330
									}
								}
							}
						}
					}
				}
			}
		}
	}
}
MOTION
Frames: 4
Frame Time: 0.008333333333333333
-0.050900 17.413600 8.308000 -10.074800 -0.796500 8.826700 0.000000 0.000000 0.000000 -14.550700 -38.415300 21.719600 0.052800 -1.483200 -4.079400 -4.348200 41.769000 -44.170800 0.638700 5.113200 14.231600 0.000000 0.000000 0.000000 26.799000 24.591300 4.888700 -0.032100 -1.157400 3.182000 0.628600 -18.982600 -20.866200 -0.010100 0.649600 -1.785000 5.477400 0.155200 0.030800 3.472200 0.729500 -8.421000 0.564200 0.105400 -8.896700 -11.299400 -13.516800 -2.901800 8.638500 -19.178400 16.736900 2.868200 -9.393200 7.552200 0.000000 0.000000 0.000000 -6.126900 11.447800 -6.750800 12.081000 -19.926000 2.129800 8.114100 38.410200 15.180900 0.000000 0.000000 0.000000 -7.125000 0.000000 0.000000 -13.121800 14.920500 -9.558900 0.000000 0.000000 0.000000 1.940800 9.166700 -4.982200 -13.303200 -21.729800 -2.564400 -2.246600 41.547300 32.034000 0.000000 0.000000 0.000000 7.125000 0.000000 -0.000000 33.343200 58.773200 -12.069200
-0.045581 17.413717 8.309852 -9.884333 -0.818668 8.833395 0.000000 0.000000 0.000000 -14.915831 -38.525806 21.804740 0.050267 -1.446131 -3.977408 -4.192791 41.655674 -44.535031 0.669379 5.232219 14.571969 0.000000 0.000000 0.000000 26.512178 24.406413 4.804311 -0.031955 -1.153271 3.170716 0.605794 -18.803064 -20.791581 -0.008005 0.575600 -1.581740 5.369958 0.154738 0.158269 3.412429 0.731999 -8.454144 0.561154 0.109649 -9.007417 -11.208232 -13.485509 -2.531517 8.634181 -19.144906 16.435777 2.894765 -9.390934 7.376437 0.000000 0.000000 0.000000 -6.071548 11.550186 -8.986913 11.897745 -19.651042 2.067744 11.744709 32.490714 14.437239 0.000000 0.000000 0.000000 -7.125000 0.000000 0.000000 -10.701947 15.417623 -7.607499 0.000000 0.000000 0.000000 1.930175 9.211578 -4.821581 -13.350892 -21.799222 -2.582185 -1.575758 41.119080 31.873182 0.000000 0.000000 0.000000 7.125000 0.000000 0.000000 33.844349 58.490923 -12.043385
-0.057964 17.428700 8.346550 -9.597635 -0.669382 9.411154 0.000000 0.000000 0.000000 -15.062389 -39.177953 21.518675 0.049930 -1.442115 -3.966342 -4.155139 41.835712 -45.066736 0.701164 5.352415 14.916328 0.000000 0.000000 0.000000 26.083767 24.814285 4.619926 -0.025012 -1.021192 2.807029 0.664314 -19.256084 -20.976428 -0.011022 -0.677376 1.861558 5.003865 0.340230 -0.901291 3.135426 0.876245 -8.720707 0.464327 0.199324 -8.666246 -10.847490 -13.661957 -1.836779 8.591690 -19.459658 16.262779 2.852788 -9.554082 7.192885 0.000000 0.000000 0.000000 -5.403778 11.788037 -12.013362 11.373607 -18.858602 1.894953 16.565486 26.136089 14.520706 0.000000 0.000000 0.000000 -7.125000 0.000000 0.000000 -7.431482 14.946175 -5.308938 0.000000 0.000000 0.000000 2.124220 9.241133 -5.045202 -13.018284 -21.313986 -2.459938 0.071323 38.732280 32.476570 0.000000 0.000000 0.000000 7.125000 0.000000 0.000000 35.998698 58.619068 -13.055449
-0.056627 17.428536 8.353644 -9.506139 -0.714104 9.443113 0.000000 0.000000 0.000000 -15.302512 -39.311033 21.639177 0.048354 -1.419175 -3.903028 -4.051238 41.814594 -45.414335 0.743071 5.506484 15.358878 0.000000 0.000000 0.000000 25.940974 24.768252 4.563004 -0.025091 -1.023175 2.812478 0.653849 -19.169420 -20.930877 -0.010748 -0.667705 1.834942 5.091589 0.349460 -0.450165 3.035223 0.944436 -9.140238 0.311471 0.205353 -9.398011 -10.672639 -13.486693 -0.933275 8.255771 -19.241909 16.192726 2.826503 -9.498657 6.942145 0.000000 0.000000 0.000000 -5.220055 12.546744 -12.425132 11.530689 -19.097091 1.946091 16.001881 26.726968 13.558660 0.000000 0.000000 0.000000 -7.125000 0.000000 0.000000 -7.805709 15.981539 -5.404909 0.000000 0.000000 0.000000 2.252970 9.943296 -5.053689 -13.072321 -21.393055 -2.479570 0.698404 38.325015 32.396857 0.000000 0.000000 0.000000 7.125000 0.000000 0.000000 36.520798 58.415530 -13.095271
